<mxfile host="app.diagrams.net" agent="Mozilla/5.0 (Windows NT 10.0; Win64; x64) AppleWebKit/537.36 (KHTML, like Gecko) Chrome/141.0.0.0 Safari/537.36 Edg/141.0.0.0" version="28.2.8">
  <diagram name="Page-1" id="5lTiuyhr_EzzjJjSZd6O">
    <mxGraphModel dx="1010" dy="515" grid="1" gridSize="10" guides="1" tooltips="1" connect="1" arrows="1" fold="1" page="1" pageScale="1" pageWidth="1400" pageHeight="850" math="0" shadow="0">
      <root>
        <mxCell id="0" />
        <mxCell id="1" parent="0" />
        <mxCell id="BLR_rrXs6T1zh-9TilPW-1" value="Security" style="fillColor=none;strokeColor=#5A6C86;dashed=1;verticalAlign=top;fontStyle=0;fontColor=#5A6C86;whiteSpace=wrap;html=1;" vertex="1" parent="1">
          <mxGeometry x="40" y="40" width="130" height="430" as="geometry" />
        </mxCell>
        <mxCell id="BLR_rrXs6T1zh-9TilPW-2" value="AWS WAF" style="sketch=0;outlineConnect=0;fontColor=#232F3E;gradientColor=none;strokeColor=#ffffff;fillColor=#232F3E;dashed=0;verticalLabelPosition=middle;verticalAlign=bottom;align=center;html=1;whiteSpace=wrap;fontSize=10;fontStyle=1;spacing=3;shape=mxgraph.aws4.productIcon;prIcon=mxgraph.aws4.waf;" vertex="1" parent="1">
          <mxGeometry x="65" y="80" width="80" height="100" as="geometry" />
        </mxCell>
        <mxCell id="BLR_rrXs6T1zh-9TilPW-4" value="Elastic Load Balancing" style="sketch=0;outlineConnect=0;fontColor=#232F3E;gradientColor=none;strokeColor=#ffffff;fillColor=#232F3E;dashed=0;verticalLabelPosition=middle;verticalAlign=bottom;align=center;html=1;whiteSpace=wrap;fontSize=10;fontStyle=1;spacing=3;shape=mxgraph.aws4.productIcon;prIcon=mxgraph.aws4.elastic_load_balancing;" vertex="1" parent="1">
          <mxGeometry x="65" y="190" width="80" height="110" as="geometry" />
        </mxCell>
        <mxCell id="BLR_rrXs6T1zh-9TilPW-5" value="AWS Key Management Service" style="sketch=0;outlineConnect=0;fontColor=#232F3E;gradientColor=none;strokeColor=#ffffff;fillColor=#232F3E;dashed=0;verticalLabelPosition=middle;verticalAlign=bottom;align=center;html=1;whiteSpace=wrap;fontSize=10;fontStyle=1;spacing=3;shape=mxgraph.aws4.productIcon;prIcon=mxgraph.aws4.key_management_service;" vertex="1" parent="1">
          <mxGeometry x="65" y="310" width="80" height="120" as="geometry" />
        </mxCell>
        <mxCell id="BLR_rrXs6T1zh-9TilPW-6" value="AWS Cloud" style="points=[[0,0],[0.25,0],[0.5,0],[0.75,0],[1,0],[1,0.25],[1,0.5],[1,0.75],[1,1],[0.75,1],[0.5,1],[0.25,1],[0,1],[0,0.75],[0,0.5],[0,0.25]];outlineConnect=0;gradientColor=none;html=1;whiteSpace=wrap;fontSize=12;fontStyle=0;container=1;pointerEvents=0;collapsible=0;recursiveResize=0;shape=mxgraph.aws4.group;grIcon=mxgraph.aws4.group_aws_cloud;strokeColor=#232F3E;fillColor=none;verticalAlign=top;align=left;spacingLeft=30;fontColor=#232F3E;dashed=0;" vertex="1" parent="1">
          <mxGeometry x="20" y="10" width="1030" height="510" as="geometry" />
        </mxCell>
        <mxCell id="BLR_rrXs6T1zh-9TilPW-21" value="" style="group" vertex="1" connectable="0" parent="BLR_rrXs6T1zh-9TilPW-6">
          <mxGeometry x="200" y="10" width="230" height="460" as="geometry" />
        </mxCell>
        <mxCell id="BLR_rrXs6T1zh-9TilPW-7" value="Jakarta-a" style="fillColor=none;strokeColor=#147EBA;dashed=1;verticalAlign=top;fontStyle=0;fontColor=#147EBA;whiteSpace=wrap;html=1;" vertex="1" parent="BLR_rrXs6T1zh-9TilPW-21">
          <mxGeometry width="230" height="460" as="geometry" />
        </mxCell>
        <mxCell id="BLR_rrXs6T1zh-9TilPW-8" value="Public subnet&lt;br&gt;192.168.1.0/24" style="points=[[0,0],[0.25,0],[0.5,0],[0.75,0],[1,0],[1,0.25],[1,0.5],[1,0.75],[1,1],[0.75,1],[0.5,1],[0.25,1],[0,1],[0,0.75],[0,0.5],[0,0.25]];outlineConnect=0;gradientColor=none;html=1;whiteSpace=wrap;fontSize=12;fontStyle=0;container=1;pointerEvents=0;collapsible=0;recursiveResize=0;shape=mxgraph.aws4.group;grIcon=mxgraph.aws4.group_security_group;grStroke=0;strokeColor=#7AA116;fillColor=#F2F6E8;verticalAlign=top;align=left;spacingLeft=30;fontColor=#248814;dashed=0;" vertex="1" parent="BLR_rrXs6T1zh-9TilPW-21">
          <mxGeometry y="45" width="230" height="130" as="geometry" />
        </mxCell>
        <mxCell id="BLR_rrXs6T1zh-9TilPW-11" value="NAT Gateway" style="text;html=1;whiteSpace=wrap;strokeColor=none;fillColor=none;align=center;verticalAlign=middle;rounded=0;" vertex="1" parent="BLR_rrXs6T1zh-9TilPW-8">
          <mxGeometry x="134.5" y="87" width="60" height="30" as="geometry" />
        </mxCell>
        <mxCell id="BLR_rrXs6T1zh-9TilPW-10" value="" style="outlineConnect=0;dashed=0;verticalLabelPosition=bottom;verticalAlign=top;align=center;html=1;shape=mxgraph.aws3.vpc_nat_gateway;fillColor=#F58534;gradientColor=none;" vertex="1" parent="BLR_rrXs6T1zh-9TilPW-21">
          <mxGeometry x="130" y="60" width="69" height="72" as="geometry" />
        </mxCell>
        <mxCell id="BLR_rrXs6T1zh-9TilPW-12" value="Private subnet&lt;div&gt;192.168.3.0/24&lt;/div&gt;" style="points=[[0,0],[0.25,0],[0.5,0],[0.75,0],[1,0],[1,0.25],[1,0.5],[1,0.75],[1,1],[0.75,1],[0.5,1],[0.25,1],[0,1],[0,0.75],[0,0.5],[0,0.25]];outlineConnect=0;gradientColor=none;html=1;whiteSpace=wrap;fontSize=12;fontStyle=0;container=1;pointerEvents=0;collapsible=0;recursiveResize=0;shape=mxgraph.aws4.group;grIcon=mxgraph.aws4.group_security_group;grStroke=0;strokeColor=#00A4A6;fillColor=#E6F6F7;verticalAlign=top;align=left;spacingLeft=30;fontColor=#147EBA;dashed=0;" vertex="1" parent="BLR_rrXs6T1zh-9TilPW-21">
          <mxGeometry y="200" width="230" height="200" as="geometry" />
        </mxCell>
        <mxCell id="BLR_rrXs6T1zh-9TilPW-14" value="Worker node" style="points=[[0,0],[0.25,0],[0.5,0],[0.75,0],[1,0],[1,0.25],[1,0.5],[1,0.75],[1,1],[0.75,1],[0.5,1],[0.25,1],[0,1],[0,0.75],[0,0.5],[0,0.25]];outlineConnect=0;gradientColor=none;html=1;whiteSpace=wrap;fontSize=12;fontStyle=0;container=1;pointerEvents=0;collapsible=0;recursiveResize=0;shape=mxgraph.aws4.group;grIcon=mxgraph.aws4.group_ec2_instance_contents;strokeColor=#D86613;fillColor=none;verticalAlign=top;align=left;spacingLeft=30;fontColor=#D86613;dashed=0;" vertex="1" parent="BLR_rrXs6T1zh-9TilPW-12">
          <mxGeometry y="36.15" width="200" height="160" as="geometry" />
        </mxCell>
        <mxCell id="BLR_rrXs6T1zh-9TilPW-15" value="" style="sketch=0;outlineConnect=0;fontColor=#232F3E;gradientColor=none;fillColor=#ED7100;strokeColor=none;dashed=0;verticalLabelPosition=bottom;verticalAlign=top;align=center;html=1;fontSize=12;fontStyle=0;aspect=fixed;pointerEvents=1;shape=mxgraph.aws4.container_1;" vertex="1" parent="BLR_rrXs6T1zh-9TilPW-21">
          <mxGeometry x="20" y="270" width="50" height="32.29" as="geometry" />
        </mxCell>
        <mxCell id="BLR_rrXs6T1zh-9TilPW-16" value="" style="sketch=0;outlineConnect=0;fontColor=#232F3E;gradientColor=none;fillColor=#ED7100;strokeColor=none;dashed=0;verticalLabelPosition=bottom;verticalAlign=top;align=center;html=1;fontSize=12;fontStyle=0;aspect=fixed;pointerEvents=1;shape=mxgraph.aws4.container_1;" vertex="1" parent="BLR_rrXs6T1zh-9TilPW-21">
          <mxGeometry x="20" y="310" width="50" height="32.29" as="geometry" />
        </mxCell>
        <mxCell id="BLR_rrXs6T1zh-9TilPW-17" value="" style="sketch=0;outlineConnect=0;fontColor=#232F3E;gradientColor=none;fillColor=#ED7100;strokeColor=none;dashed=0;verticalLabelPosition=bottom;verticalAlign=top;align=center;html=1;fontSize=12;fontStyle=0;aspect=fixed;pointerEvents=1;shape=mxgraph.aws4.container_1;" vertex="1" parent="BLR_rrXs6T1zh-9TilPW-21">
          <mxGeometry x="20" y="350" width="50" height="32.29" as="geometry" />
        </mxCell>
        <mxCell id="BLR_rrXs6T1zh-9TilPW-18" value="ELB Controller" style="text;html=1;whiteSpace=wrap;strokeColor=none;fillColor=none;align=center;verticalAlign=middle;rounded=0;" vertex="1" parent="BLR_rrXs6T1zh-9TilPW-21">
          <mxGeometry x="65" y="272.29" width="100" height="30" as="geometry" />
        </mxCell>
        <mxCell id="BLR_rrXs6T1zh-9TilPW-20" value="Backend" style="text;html=1;whiteSpace=wrap;strokeColor=none;fillColor=none;align=center;verticalAlign=middle;rounded=0;" vertex="1" parent="BLR_rrXs6T1zh-9TilPW-21">
          <mxGeometry x="64" y="347" width="100" height="30" as="geometry" />
        </mxCell>
        <mxCell id="BLR_rrXs6T1zh-9TilPW-58" value="" style="endArrow=classic;html=1;rounded=0;shape=link;strokeColor=#FF430A;" edge="1" parent="BLR_rrXs6T1zh-9TilPW-21">
          <mxGeometry width="50" height="50" relative="1" as="geometry">
            <mxPoint x="160" y="240" as="sourcePoint" />
            <mxPoint x="70" y="327" as="targetPoint" />
            <Array as="points">
              <mxPoint x="170" y="260" />
              <mxPoint x="170" y="290" />
              <mxPoint x="170" y="327" />
            </Array>
          </mxGeometry>
        </mxCell>
        <mxCell id="BLR_rrXs6T1zh-9TilPW-19" value="Frontend" style="text;html=1;whiteSpace=wrap;strokeColor=none;fillColor=none;align=center;verticalAlign=middle;rounded=0;" vertex="1" parent="BLR_rrXs6T1zh-9TilPW-21">
          <mxGeometry x="65" y="301.15000000000003" width="100" height="30" as="geometry" />
        </mxCell>
        <mxCell id="BLR_rrXs6T1zh-9TilPW-63" style="edgeStyle=none;rounded=0;orthogonalLoop=1;jettySize=auto;html=1;shape=link;strokeColor=#330AFF;" edge="1" parent="BLR_rrXs6T1zh-9TilPW-21" source="BLR_rrXs6T1zh-9TilPW-59">
          <mxGeometry relative="1" as="geometry">
            <mxPoint x="70" y="370" as="targetPoint" />
            <Array as="points">
              <mxPoint x="179" y="370" />
            </Array>
          </mxGeometry>
        </mxCell>
        <mxCell id="BLR_rrXs6T1zh-9TilPW-59" value="" style="sketch=0;outlineConnect=0;fontColor=#232F3E;gradientColor=none;fillColor=#8C4FFF;strokeColor=none;dashed=0;verticalLabelPosition=bottom;verticalAlign=top;align=center;html=1;fontSize=12;fontStyle=0;aspect=fixed;pointerEvents=1;shape=mxgraph.aws4.application_load_balancer;" vertex="1" parent="BLR_rrXs6T1zh-9TilPW-21">
          <mxGeometry x="160" y="250" width="38" height="38" as="geometry" />
        </mxCell>
        <mxCell id="BLR_rrXs6T1zh-9TilPW-22" value="VPC 192.168.0.0/16" style="points=[[0,0],[0.25,0],[0.5,0],[0.75,0],[1,0],[1,0.25],[1,0.5],[1,0.75],[1,1],[0.75,1],[0.5,1],[0.25,1],[0,1],[0,0.75],[0,0.5],[0,0.25]];outlineConnect=0;gradientColor=none;html=1;whiteSpace=wrap;fontSize=12;fontStyle=0;container=1;pointerEvents=0;collapsible=0;recursiveResize=0;shape=mxgraph.aws4.group;grIcon=mxgraph.aws4.group_vpc2;strokeColor=#8C4FFF;fillColor=none;verticalAlign=top;align=left;spacingLeft=30;fontColor=#AAB7B8;dashed=0;" vertex="1" parent="BLR_rrXs6T1zh-9TilPW-6">
          <mxGeometry x="170" y="30" width="850" height="430" as="geometry" />
        </mxCell>
        <mxCell id="BLR_rrXs6T1zh-9TilPW-52" value="" style="edgeStyle=orthogonalEdgeStyle;rounded=0;orthogonalLoop=1;jettySize=auto;html=1;strokeColor=#FF430A;" edge="1" parent="BLR_rrXs6T1zh-9TilPW-22" source="BLR_rrXs6T1zh-9TilPW-50" target="BLR_rrXs6T1zh-9TilPW-51">
          <mxGeometry relative="1" as="geometry" />
        </mxCell>
        <mxCell id="BLR_rrXs6T1zh-9TilPW-50" value="" style="outlineConnect=0;dashed=0;verticalLabelPosition=bottom;verticalAlign=top;align=center;html=1;shape=mxgraph.aws3.internet_gateway;fillColor=#F58534;gradientColor=none;" vertex="1" parent="BLR_rrXs6T1zh-9TilPW-22">
          <mxGeometry x="300" y="-32" width="69" height="72" as="geometry" />
        </mxCell>
        <mxCell id="BLR_rrXs6T1zh-9TilPW-51" value="" style="outlineConnect=0;dashed=0;verticalLabelPosition=bottom;verticalAlign=top;align=center;html=1;shape=mxgraph.aws3.classic_load_balancer;fillColor=#F58534;gradientColor=none;" vertex="1" parent="BLR_rrXs6T1zh-9TilPW-22">
          <mxGeometry x="300" y="83" width="69" height="72" as="geometry" />
        </mxCell>
        <mxCell id="BLR_rrXs6T1zh-9TilPW-53" value="EKS Load Balancer Public" style="text;html=1;whiteSpace=wrap;strokeColor=none;fillColor=none;align=center;verticalAlign=middle;rounded=0;" vertex="1" parent="BLR_rrXs6T1zh-9TilPW-22">
          <mxGeometry x="369" y="104" width="60" height="30" as="geometry" />
        </mxCell>
        <mxCell id="BLR_rrXs6T1zh-9TilPW-54" value="Auto Scaling group for Worker" style="points=[[0,0],[0.25,0],[0.5,0],[0.75,0],[1,0],[1,0.25],[1,0.5],[1,0.75],[1,1],[0.75,1],[0.5,1],[0.25,1],[0,1],[0,0.75],[0,0.5],[0,0.25]];outlineConnect=0;gradientColor=none;html=1;whiteSpace=wrap;fontSize=12;fontStyle=0;container=1;pointerEvents=0;collapsible=0;recursiveResize=0;shape=mxgraph.aws4.groupCenter;grIcon=mxgraph.aws4.group_auto_scaling_group;grStroke=1;strokeColor=#D86613;fillColor=none;verticalAlign=top;align=center;fontColor=#D86613;dashed=1;spacingTop=25;" vertex="1" parent="BLR_rrXs6T1zh-9TilPW-22">
          <mxGeometry x="10" y="170" width="710" height="230" as="geometry" />
        </mxCell>
        <mxCell id="BLR_rrXs6T1zh-9TilPW-60" value="" style="outlineConnect=0;dashed=0;verticalLabelPosition=bottom;verticalAlign=top;align=center;html=1;shape=mxgraph.aws3.classic_load_balancer;fillColor=#F58534;gradientColor=none;" vertex="1" parent="BLR_rrXs6T1zh-9TilPW-54">
          <mxGeometry x="300" y="61.29" width="59" height="58.71" as="geometry" />
        </mxCell>
        <mxCell id="BLR_rrXs6T1zh-9TilPW-64" value="EKS Load Balancer Private" style="text;html=1;whiteSpace=wrap;strokeColor=none;fillColor=none;align=center;verticalAlign=middle;rounded=0;" vertex="1" parent="BLR_rrXs6T1zh-9TilPW-54">
          <mxGeometry x="359" y="75.63999999999999" width="60" height="30" as="geometry" />
        </mxCell>
        <mxCell id="BLR_rrXs6T1zh-9TilPW-70" value="" style="edgeStyle=none;rounded=0;orthogonalLoop=1;jettySize=auto;html=1;" edge="1" parent="BLR_rrXs6T1zh-9TilPW-54" source="BLR_rrXs6T1zh-9TilPW-69" target="BLR_rrXs6T1zh-9TilPW-60">
          <mxGeometry relative="1" as="geometry" />
        </mxCell>
        <mxCell id="BLR_rrXs6T1zh-9TilPW-69" value="Amazon API Gateway" style="sketch=0;outlineConnect=0;fontColor=#232F3E;gradientColor=none;strokeColor=#ffffff;fillColor=#232F3E;dashed=0;verticalLabelPosition=middle;verticalAlign=bottom;align=center;html=1;whiteSpace=wrap;fontSize=10;fontStyle=1;spacing=3;shape=mxgraph.aws4.productIcon;prIcon=mxgraph.aws4.api_gateway;" vertex="1" parent="BLR_rrXs6T1zh-9TilPW-54">
          <mxGeometry x="300" y="165" width="60" height="100" as="geometry" />
        </mxCell>
        <mxCell id="BLR_rrXs6T1zh-9TilPW-37" value="" style="group" vertex="1" connectable="0" parent="BLR_rrXs6T1zh-9TilPW-6">
          <mxGeometry x="640" y="10" width="230" height="460" as="geometry" />
        </mxCell>
        <mxCell id="BLR_rrXs6T1zh-9TilPW-38" value="Jakarta-b" style="fillColor=none;strokeColor=#147EBA;dashed=1;verticalAlign=top;fontStyle=0;fontColor=#147EBA;whiteSpace=wrap;html=1;" vertex="1" parent="BLR_rrXs6T1zh-9TilPW-37">
          <mxGeometry width="230" height="460" as="geometry" />
        </mxCell>
        <mxCell id="BLR_rrXs6T1zh-9TilPW-39" value="Public subnet&lt;br&gt;192.168.2.0/24" style="points=[[0,0],[0.25,0],[0.5,0],[0.75,0],[1,0],[1,0.25],[1,0.5],[1,0.75],[1,1],[0.75,1],[0.5,1],[0.25,1],[0,1],[0,0.75],[0,0.5],[0,0.25]];outlineConnect=0;gradientColor=none;html=1;whiteSpace=wrap;fontSize=12;fontStyle=0;container=1;pointerEvents=0;collapsible=0;recursiveResize=0;shape=mxgraph.aws4.group;grIcon=mxgraph.aws4.group_security_group;grStroke=0;strokeColor=#7AA116;fillColor=#F2F6E8;verticalAlign=top;align=left;spacingLeft=30;fontColor=#248814;dashed=0;" vertex="1" parent="BLR_rrXs6T1zh-9TilPW-37">
          <mxGeometry y="45" width="230" height="130" as="geometry" />
        </mxCell>
        <mxCell id="BLR_rrXs6T1zh-9TilPW-41" value="" style="outlineConnect=0;dashed=0;verticalLabelPosition=bottom;verticalAlign=top;align=center;html=1;shape=mxgraph.aws3.vpc_nat_gateway;fillColor=#F58534;gradientColor=none;" vertex="1" parent="BLR_rrXs6T1zh-9TilPW-37">
          <mxGeometry x="130" y="60" width="69" height="72" as="geometry" />
        </mxCell>
        <mxCell id="BLR_rrXs6T1zh-9TilPW-42" value="Private subnet&lt;div&gt;192.168.4.0/24&lt;/div&gt;" style="points=[[0,0],[0.25,0],[0.5,0],[0.75,0],[1,0],[1,0.25],[1,0.5],[1,0.75],[1,1],[0.75,1],[0.5,1],[0.25,1],[0,1],[0,0.75],[0,0.5],[0,0.25]];outlineConnect=0;gradientColor=none;html=1;whiteSpace=wrap;fontSize=12;fontStyle=0;container=1;pointerEvents=0;collapsible=0;recursiveResize=0;shape=mxgraph.aws4.group;grIcon=mxgraph.aws4.group_security_group;grStroke=0;strokeColor=#00A4A6;fillColor=#E6F6F7;verticalAlign=top;align=left;spacingLeft=30;fontColor=#147EBA;dashed=0;" vertex="1" parent="BLR_rrXs6T1zh-9TilPW-37">
          <mxGeometry y="200" width="230" height="200" as="geometry" />
        </mxCell>
        <mxCell id="BLR_rrXs6T1zh-9TilPW-43" value="Worker node" style="points=[[0,0],[0.25,0],[0.5,0],[0.75,0],[1,0],[1,0.25],[1,0.5],[1,0.75],[1,1],[0.75,1],[0.5,1],[0.25,1],[0,1],[0,0.75],[0,0.5],[0,0.25]];outlineConnect=0;gradientColor=none;html=1;whiteSpace=wrap;fontSize=12;fontStyle=0;container=1;pointerEvents=0;collapsible=0;recursiveResize=0;shape=mxgraph.aws4.group;grIcon=mxgraph.aws4.group_ec2_instance_contents;strokeColor=#D86613;fillColor=none;verticalAlign=top;align=left;spacingLeft=30;fontColor=#D86613;dashed=0;" vertex="1" parent="BLR_rrXs6T1zh-9TilPW-42">
          <mxGeometry y="36.15" width="200" height="160" as="geometry" />
        </mxCell>
        <mxCell id="BLR_rrXs6T1zh-9TilPW-65" style="edgeStyle=none;rounded=0;orthogonalLoop=1;jettySize=auto;html=1;exitX=0;exitY=0;exitDx=0;exitDy=0;" edge="1" parent="BLR_rrXs6T1zh-9TilPW-37" source="BLR_rrXs6T1zh-9TilPW-48" target="BLR_rrXs6T1zh-9TilPW-41">
          <mxGeometry relative="1" as="geometry">
            <Array as="points">
              <mxPoint x="164" y="312" />
            </Array>
          </mxGeometry>
        </mxCell>
        <mxCell id="BLR_rrXs6T1zh-9TilPW-66" value="&lt;b&gt;Request Outbond&amp;nbsp;&lt;/b&gt;&lt;div&gt;&lt;b&gt;NAT&lt;/b&gt;&lt;/div&gt;" style="edgeLabel;html=1;align=center;verticalAlign=middle;resizable=0;points=[];fillColor=#66FFFF;strokeColor=#330AFF;" vertex="1" connectable="0" parent="BLR_rrXs6T1zh-9TilPW-65">
          <mxGeometry x="0.4054" y="-1" relative="1" as="geometry">
            <mxPoint y="-26" as="offset" />
          </mxGeometry>
        </mxCell>
        <mxCell id="BLR_rrXs6T1zh-9TilPW-45" value="" style="sketch=0;outlineConnect=0;fontColor=#232F3E;gradientColor=none;fillColor=#ED7100;strokeColor=none;dashed=0;verticalLabelPosition=bottom;verticalAlign=top;align=center;html=1;fontSize=12;fontStyle=0;aspect=fixed;pointerEvents=1;shape=mxgraph.aws4.container_1;" vertex="1" parent="BLR_rrXs6T1zh-9TilPW-37">
          <mxGeometry x="20" y="300" width="50" height="32.29" as="geometry" />
        </mxCell>
        <mxCell id="BLR_rrXs6T1zh-9TilPW-46" value="" style="sketch=0;outlineConnect=0;fontColor=#232F3E;gradientColor=none;fillColor=#ED7100;strokeColor=none;dashed=0;verticalLabelPosition=bottom;verticalAlign=top;align=center;html=1;fontSize=12;fontStyle=0;aspect=fixed;pointerEvents=1;shape=mxgraph.aws4.container_1;" vertex="1" parent="BLR_rrXs6T1zh-9TilPW-37">
          <mxGeometry x="20" y="350" width="50" height="32.29" as="geometry" />
        </mxCell>
        <mxCell id="BLR_rrXs6T1zh-9TilPW-48" value="Frontend" style="text;html=1;whiteSpace=wrap;strokeColor=none;fillColor=none;align=center;verticalAlign=middle;rounded=0;" vertex="1" parent="BLR_rrXs6T1zh-9TilPW-37">
          <mxGeometry x="70" y="312.29" width="100" height="30" as="geometry" />
        </mxCell>
        <mxCell id="BLR_rrXs6T1zh-9TilPW-49" value="Backend" style="text;html=1;whiteSpace=wrap;strokeColor=none;fillColor=none;align=center;verticalAlign=middle;rounded=0;" vertex="1" parent="BLR_rrXs6T1zh-9TilPW-37">
          <mxGeometry x="70" y="350" width="100" height="30" as="geometry" />
        </mxCell>
        <mxCell id="BLR_rrXs6T1zh-9TilPW-40" value="NAT Gateway" style="text;html=1;whiteSpace=wrap;strokeColor=none;fillColor=none;align=center;verticalAlign=middle;rounded=0;" vertex="1" parent="BLR_rrXs6T1zh-9TilPW-37">
          <mxGeometry x="100" y="132" width="60" height="30" as="geometry" />
        </mxCell>
        <mxCell id="BLR_rrXs6T1zh-9TilPW-55" style="edgeStyle=orthogonalEdgeStyle;rounded=0;orthogonalLoop=1;jettySize=auto;html=1;strokeColor=#FF430A;" edge="1" parent="BLR_rrXs6T1zh-9TilPW-6" source="BLR_rrXs6T1zh-9TilPW-51" target="BLR_rrXs6T1zh-9TilPW-14">
          <mxGeometry relative="1" as="geometry">
            <Array as="points">
              <mxPoint x="504" y="220" />
              <mxPoint x="360" y="220" />
            </Array>
          </mxGeometry>
        </mxCell>
        <mxCell id="BLR_rrXs6T1zh-9TilPW-56" style="edgeStyle=orthogonalEdgeStyle;rounded=0;orthogonalLoop=1;jettySize=auto;html=1;fillColor=#FF430A;strokeColor=#FF430A;" edge="1" parent="BLR_rrXs6T1zh-9TilPW-6" source="BLR_rrXs6T1zh-9TilPW-51" target="BLR_rrXs6T1zh-9TilPW-45">
          <mxGeometry relative="1" as="geometry">
            <Array as="points">
              <mxPoint x="504" y="220" />
              <mxPoint x="630" y="220" />
              <mxPoint x="630" y="326" />
            </Array>
          </mxGeometry>
        </mxCell>
        <mxCell id="BLR_rrXs6T1zh-9TilPW-62" style="edgeStyle=none;rounded=0;orthogonalLoop=1;jettySize=auto;html=1;strokeColor=#330AFF;" edge="1" parent="BLR_rrXs6T1zh-9TilPW-6">
          <mxGeometry relative="1" as="geometry">
            <mxPoint x="480" y="279" as="sourcePoint" />
            <mxPoint x="400" y="279" as="targetPoint" />
          </mxGeometry>
        </mxCell>
        <mxCell id="BLR_rrXs6T1zh-9TilPW-67" style="edgeStyle=none;rounded=0;orthogonalLoop=1;jettySize=auto;html=1;" edge="1" parent="BLR_rrXs6T1zh-9TilPW-6" source="BLR_rrXs6T1zh-9TilPW-41" target="BLR_rrXs6T1zh-9TilPW-50">
          <mxGeometry relative="1" as="geometry">
            <Array as="points">
              <mxPoint x="610" y="106" />
            </Array>
          </mxGeometry>
        </mxCell>
        <mxCell id="BLR_rrXs6T1zh-9TilPW-68" style="edgeStyle=none;rounded=0;orthogonalLoop=1;jettySize=auto;html=1;strokeColor=#330AFF;" edge="1" parent="BLR_rrXs6T1zh-9TilPW-6" source="BLR_rrXs6T1zh-9TilPW-60" target="BLR_rrXs6T1zh-9TilPW-46">
          <mxGeometry relative="1" as="geometry">
            <Array as="points">
              <mxPoint x="590" y="360" />
            </Array>
          </mxGeometry>
        </mxCell>
      </root>
    </mxGraphModel>
  </diagram>
</mxfile>
